<mxfile host="Electron" modified="2023-05-01T01:22:30.010Z" agent="Mozilla/5.0 (Windows NT 10.0; Win64; x64) AppleWebKit/537.36 (KHTML, like Gecko) draw.io/21.2.1 Chrome/112.0.5615.87 Electron/24.1.2 Safari/537.36" etag="nMNx5UTFi7ERyw_425fK" version="21.2.1" type="device">
  <diagram name="Phy-network" id="kqhzED3qT5bdXzFpC9Ln">
    <mxGraphModel dx="1434" dy="854" grid="1" gridSize="10" guides="1" tooltips="1" connect="1" arrows="1" fold="1" page="1" pageScale="1" pageWidth="1169" pageHeight="827" math="0" shadow="0">
      <root>
        <mxCell id="0" />
        <mxCell id="1" parent="0" />
        <mxCell id="njmSZVeZpDOZNiLY1oN7-1" value="hostname-A" style="rounded=0;whiteSpace=wrap;html=1;strokeWidth=2;" vertex="1" parent="1">
          <mxGeometry x="370" y="190" width="120" height="60" as="geometry" />
        </mxCell>
        <mxCell id="njmSZVeZpDOZNiLY1oN7-3" value="hostname-B" style="rounded=0;whiteSpace=wrap;html=1;strokeWidth=2;" vertex="1" parent="1">
          <mxGeometry x="937" y="190" width="163" height="60" as="geometry" />
        </mxCell>
        <mxCell id="njmSZVeZpDOZNiLY1oN7-4" value="hostname-A1" style="rounded=0;whiteSpace=wrap;html=1;strokeWidth=2;" vertex="1" parent="1">
          <mxGeometry x="260" y="431" width="120" height="60" as="geometry" />
        </mxCell>
        <mxCell id="njmSZVeZpDOZNiLY1oN7-6" value="hostname-A2" style="rounded=0;whiteSpace=wrap;html=1;strokeWidth=2;" vertex="1" parent="1">
          <mxGeometry x="440" y="431" width="120" height="60" as="geometry" />
        </mxCell>
        <mxCell id="njmSZVeZpDOZNiLY1oN7-7" value="hostname-B1" style="rounded=0;whiteSpace=wrap;html=1;strokeWidth=2;" vertex="1" parent="1">
          <mxGeometry x="682.5" y="430" width="120" height="60" as="geometry" />
        </mxCell>
        <mxCell id="njmSZVeZpDOZNiLY1oN7-8" value="hostname-B2" style="rounded=0;whiteSpace=wrap;html=1;strokeWidth=2;" vertex="1" parent="1">
          <mxGeometry x="843" y="430" width="120" height="60" as="geometry" />
        </mxCell>
        <mxCell id="njmSZVeZpDOZNiLY1oN7-9" value="hostname-B3" style="rounded=0;whiteSpace=wrap;html=1;strokeWidth=2;" vertex="1" parent="1">
          <mxGeometry x="1012" y="430" width="120" height="60" as="geometry" />
        </mxCell>
        <mxCell id="njmSZVeZpDOZNiLY1oN7-10" value="hostname-B4" style="rounded=0;whiteSpace=wrap;html=1;strokeWidth=2;" vertex="1" parent="1">
          <mxGeometry x="1175.5" y="430" width="120" height="60" as="geometry" />
        </mxCell>
        <mxCell id="njmSZVeZpDOZNiLY1oN7-11" value="" style="endArrow=box;html=1;rounded=0;exitX=1;exitY=0.5;exitDx=0;exitDy=0;entryX=0;entryY=0.5;entryDx=0;entryDy=0;endFill=0;startArrow=box;startFill=0;strokeWidth=2;strokeColor=#0066CC;" edge="1" parent="1" source="njmSZVeZpDOZNiLY1oN7-1" target="njmSZVeZpDOZNiLY1oN7-3">
          <mxGeometry relative="1" as="geometry">
            <mxPoint x="650" y="440" as="sourcePoint" />
            <mxPoint x="810" y="440" as="targetPoint" />
            <Array as="points">
              <mxPoint x="690" y="220" />
            </Array>
          </mxGeometry>
        </mxCell>
        <mxCell id="njmSZVeZpDOZNiLY1oN7-12" value="1000base-SX" style="edgeLabel;resizable=0;html=1;align=center;verticalAlign=middle;" connectable="0" vertex="1" parent="njmSZVeZpDOZNiLY1oN7-11">
          <mxGeometry relative="1" as="geometry">
            <mxPoint y="-10" as="offset" />
          </mxGeometry>
        </mxCell>
        <mxCell id="njmSZVeZpDOZNiLY1oN7-13" value="Gi1/01" style="edgeLabel;resizable=0;html=1;align=left;verticalAlign=bottom;" connectable="0" vertex="1" parent="njmSZVeZpDOZNiLY1oN7-11">
          <mxGeometry x="-1" relative="1" as="geometry">
            <mxPoint x="10" y="-10" as="offset" />
          </mxGeometry>
        </mxCell>
        <mxCell id="njmSZVeZpDOZNiLY1oN7-14" value="Gi1/02" style="edgeLabel;resizable=0;html=1;align=right;verticalAlign=bottom;" connectable="0" vertex="1" parent="njmSZVeZpDOZNiLY1oN7-11">
          <mxGeometry x="1" relative="1" as="geometry">
            <mxPoint x="-10" y="-10" as="offset" />
          </mxGeometry>
        </mxCell>
        <mxCell id="njmSZVeZpDOZNiLY1oN7-19" value="" style="endArrow=none;html=1;rounded=0;exitX=0.611;exitY=1.017;exitDx=0;exitDy=0;entryX=0.5;entryY=0;entryDx=0;entryDy=0;endFill=0;startArrow=none;startFill=0;strokeWidth=1;strokeColor=#0d0d0d;jumpStyle=arc;exitPerimeter=0;" edge="1" parent="1" source="njmSZVeZpDOZNiLY1oN7-3" target="njmSZVeZpDOZNiLY1oN7-9">
          <mxGeometry relative="1" as="geometry">
            <mxPoint x="1037" y="260" as="sourcePoint" />
            <mxPoint x="1192" y="394" as="targetPoint" />
          </mxGeometry>
        </mxCell>
        <mxCell id="njmSZVeZpDOZNiLY1oN7-20" value="1000base-TX" style="edgeLabel;resizable=0;html=1;align=center;verticalAlign=middle;" connectable="0" vertex="1" parent="njmSZVeZpDOZNiLY1oN7-19">
          <mxGeometry relative="1" as="geometry">
            <mxPoint y="20" as="offset" />
          </mxGeometry>
        </mxCell>
        <mxCell id="njmSZVeZpDOZNiLY1oN7-21" value="Gi1/01" style="edgeLabel;resizable=0;html=1;align=left;verticalAlign=bottom;" connectable="0" vertex="1" parent="njmSZVeZpDOZNiLY1oN7-19">
          <mxGeometry x="-1" relative="1" as="geometry">
            <mxPoint x="-8" y="50" as="offset" />
          </mxGeometry>
        </mxCell>
        <mxCell id="njmSZVeZpDOZNiLY1oN7-22" value="Gi1/02" style="edgeLabel;resizable=0;html=1;align=right;verticalAlign=bottom;" connectable="0" vertex="1" parent="njmSZVeZpDOZNiLY1oN7-19">
          <mxGeometry x="1" relative="1" as="geometry">
            <mxPoint x="19" y="-3" as="offset" />
          </mxGeometry>
        </mxCell>
        <mxCell id="njmSZVeZpDOZNiLY1oN7-23" value="" style="endArrow=none;html=1;rounded=0;exitX=0.336;exitY=1.005;exitDx=0;exitDy=0;entryX=0.5;entryY=0;entryDx=0;entryDy=0;endFill=0;startArrow=none;startFill=0;strokeWidth=1;strokeColor=#0d0d0d;jumpStyle=arc;exitPerimeter=0;" edge="1" parent="1" source="njmSZVeZpDOZNiLY1oN7-3" target="njmSZVeZpDOZNiLY1oN7-8">
          <mxGeometry relative="1" as="geometry">
            <mxPoint x="990.9960000000001" y="260" as="sourcePoint" />
            <mxPoint x="878.44" y="440.36" as="targetPoint" />
          </mxGeometry>
        </mxCell>
        <mxCell id="njmSZVeZpDOZNiLY1oN7-24" value="1000base-TX" style="edgeLabel;resizable=0;html=1;align=center;verticalAlign=middle;" connectable="0" vertex="1" parent="njmSZVeZpDOZNiLY1oN7-23">
          <mxGeometry relative="1" as="geometry">
            <mxPoint x="-8" y="20" as="offset" />
          </mxGeometry>
        </mxCell>
        <mxCell id="njmSZVeZpDOZNiLY1oN7-25" value="Gi1/01" style="edgeLabel;resizable=0;html=1;align=left;verticalAlign=bottom;" connectable="0" vertex="1" parent="njmSZVeZpDOZNiLY1oN7-23">
          <mxGeometry x="-1" relative="1" as="geometry">
            <mxPoint x="-43" y="50" as="offset" />
          </mxGeometry>
        </mxCell>
        <mxCell id="njmSZVeZpDOZNiLY1oN7-26" value="Gi1/02" style="edgeLabel;resizable=0;html=1;align=right;verticalAlign=bottom;" connectable="0" vertex="1" parent="njmSZVeZpDOZNiLY1oN7-23">
          <mxGeometry x="1" relative="1" as="geometry">
            <mxPoint x="31" y="-4" as="offset" />
          </mxGeometry>
        </mxCell>
        <mxCell id="njmSZVeZpDOZNiLY1oN7-27" value="" style="endArrow=none;html=1;rounded=0;endFill=0;startArrow=none;startFill=0;strokeWidth=1;strokeColor=#0d0d0d;jumpStyle=arc;entryX=0.5;entryY=0;entryDx=0;entryDy=0;" edge="1" parent="1" target="njmSZVeZpDOZNiLY1oN7-7">
          <mxGeometry relative="1" as="geometry">
            <mxPoint x="970" y="250" as="sourcePoint" />
            <mxPoint x="632" y="410" as="targetPoint" />
          </mxGeometry>
        </mxCell>
        <mxCell id="njmSZVeZpDOZNiLY1oN7-28" value="1000base-TX" style="edgeLabel;resizable=0;html=1;align=center;verticalAlign=middle;" connectable="0" vertex="1" parent="njmSZVeZpDOZNiLY1oN7-27">
          <mxGeometry relative="1" as="geometry">
            <mxPoint x="-33" y="20" as="offset" />
          </mxGeometry>
        </mxCell>
        <mxCell id="njmSZVeZpDOZNiLY1oN7-29" value="Gi1/01" style="edgeLabel;resizable=0;html=1;align=left;verticalAlign=bottom;labelBorderColor=none;spacing=2;" connectable="0" vertex="1" parent="njmSZVeZpDOZNiLY1oN7-27">
          <mxGeometry x="-1" relative="1" as="geometry">
            <mxPoint x="-80" y="50" as="offset" />
          </mxGeometry>
        </mxCell>
        <mxCell id="njmSZVeZpDOZNiLY1oN7-30" value="Gi1/02" style="edgeLabel;resizable=0;html=1;align=right;verticalAlign=bottom;" connectable="0" vertex="1" parent="njmSZVeZpDOZNiLY1oN7-27">
          <mxGeometry x="1" relative="1" as="geometry">
            <mxPoint x="44" y="-4" as="offset" />
          </mxGeometry>
        </mxCell>
        <mxCell id="njmSZVeZpDOZNiLY1oN7-31" value="" style="endArrow=none;html=1;rounded=0;endFill=0;startArrow=none;startFill=0;strokeWidth=1;strokeColor=#0d0d0d;jumpStyle=arc;exitX=0.75;exitY=1;exitDx=0;exitDy=0;" edge="1" parent="1" source="njmSZVeZpDOZNiLY1oN7-3">
          <mxGeometry relative="1" as="geometry">
            <mxPoint x="1192" y="250" as="sourcePoint" />
            <mxPoint x="1236" y="431" as="targetPoint" />
          </mxGeometry>
        </mxCell>
        <mxCell id="njmSZVeZpDOZNiLY1oN7-32" value="1000base-TX" style="edgeLabel;resizable=0;html=1;align=center;verticalAlign=middle;" connectable="0" vertex="1" parent="njmSZVeZpDOZNiLY1oN7-31">
          <mxGeometry relative="1" as="geometry">
            <mxPoint x="33" y="20" as="offset" />
          </mxGeometry>
        </mxCell>
        <mxCell id="njmSZVeZpDOZNiLY1oN7-33" value="Gi1/01" style="edgeLabel;resizable=0;html=1;align=left;verticalAlign=bottom;" connectable="0" vertex="1" parent="njmSZVeZpDOZNiLY1oN7-31">
          <mxGeometry x="-1" relative="1" as="geometry">
            <mxPoint x="42" y="50" as="offset" />
          </mxGeometry>
        </mxCell>
        <mxCell id="njmSZVeZpDOZNiLY1oN7-34" value="Gi1/02" style="edgeLabel;resizable=0;html=1;align=right;verticalAlign=bottom;" connectable="0" vertex="1" parent="njmSZVeZpDOZNiLY1oN7-31">
          <mxGeometry x="1" relative="1" as="geometry">
            <mxPoint x="4" y="-3" as="offset" />
          </mxGeometry>
        </mxCell>
        <mxCell id="njmSZVeZpDOZNiLY1oN7-35" value="" style="endArrow=none;html=1;rounded=0;endFill=0;startArrow=none;startFill=0;strokeWidth=1;strokeColor=#0d0d0d;jumpStyle=arc;exitX=0.319;exitY=0.982;exitDx=0;exitDy=0;exitPerimeter=0;entryX=0.5;entryY=0;entryDx=0;entryDy=0;" edge="1" parent="1" source="njmSZVeZpDOZNiLY1oN7-1" target="njmSZVeZpDOZNiLY1oN7-4">
          <mxGeometry relative="1" as="geometry">
            <mxPoint x="388" y="240" as="sourcePoint" />
            <mxPoint x="160" y="420" as="targetPoint" />
          </mxGeometry>
        </mxCell>
        <mxCell id="njmSZVeZpDOZNiLY1oN7-36" value="1000base-TX" style="edgeLabel;resizable=0;html=1;align=center;verticalAlign=middle;" connectable="0" vertex="1" parent="njmSZVeZpDOZNiLY1oN7-35">
          <mxGeometry relative="1" as="geometry">
            <mxPoint x="-33" y="20" as="offset" />
          </mxGeometry>
        </mxCell>
        <mxCell id="njmSZVeZpDOZNiLY1oN7-37" value="Gi1/01" style="edgeLabel;resizable=0;html=1;align=left;verticalAlign=bottom;labelBorderColor=none;spacing=2;" connectable="0" vertex="1" parent="njmSZVeZpDOZNiLY1oN7-35">
          <mxGeometry x="-1" relative="1" as="geometry">
            <mxPoint x="-38" y="31" as="offset" />
          </mxGeometry>
        </mxCell>
        <mxCell id="njmSZVeZpDOZNiLY1oN7-38" value="Gi1/02" style="edgeLabel;resizable=0;html=1;align=right;verticalAlign=bottom;" connectable="0" vertex="1" parent="njmSZVeZpDOZNiLY1oN7-35">
          <mxGeometry x="1" relative="1" as="geometry">
            <mxPoint x="20" y="-4" as="offset" />
          </mxGeometry>
        </mxCell>
        <mxCell id="njmSZVeZpDOZNiLY1oN7-39" value="" style="endArrow=none;html=1;rounded=0;endFill=0;startArrow=none;startFill=0;strokeWidth=1;strokeColor=#0d0d0d;jumpStyle=arc;exitX=0.56;exitY=0.994;exitDx=0;exitDy=0;exitPerimeter=0;" edge="1" parent="1" source="njmSZVeZpDOZNiLY1oN7-1">
          <mxGeometry relative="1" as="geometry">
            <mxPoint x="568" y="260" as="sourcePoint" />
            <mxPoint x="500" y="430" as="targetPoint" />
          </mxGeometry>
        </mxCell>
        <mxCell id="njmSZVeZpDOZNiLY1oN7-40" value="1000base-TX" style="edgeLabel;resizable=0;html=1;align=center;verticalAlign=middle;" connectable="0" vertex="1" parent="njmSZVeZpDOZNiLY1oN7-39">
          <mxGeometry relative="1" as="geometry">
            <mxPoint x="12" y="20" as="offset" />
          </mxGeometry>
        </mxCell>
        <mxCell id="njmSZVeZpDOZNiLY1oN7-41" value="Gi1/01" style="edgeLabel;resizable=0;html=1;align=left;verticalAlign=bottom;labelBorderColor=none;spacing=2;" connectable="0" vertex="1" parent="njmSZVeZpDOZNiLY1oN7-39">
          <mxGeometry x="-1" relative="1" as="geometry">
            <mxPoint x="-7" y="30" as="offset" />
          </mxGeometry>
        </mxCell>
        <mxCell id="njmSZVeZpDOZNiLY1oN7-42" value="Gi1/02" style="edgeLabel;resizable=0;html=1;align=right;verticalAlign=bottom;" connectable="0" vertex="1" parent="njmSZVeZpDOZNiLY1oN7-39">
          <mxGeometry x="1" relative="1" as="geometry">
            <mxPoint x="10" y="-4" as="offset" />
          </mxGeometry>
        </mxCell>
        <mxCell id="njmSZVeZpDOZNiLY1oN7-43" value="hostname-A21" style="rounded=0;whiteSpace=wrap;html=1;strokeWidth=2;" vertex="1" parent="1">
          <mxGeometry x="431" y="657" width="120" height="60" as="geometry" />
        </mxCell>
        <mxCell id="njmSZVeZpDOZNiLY1oN7-44" value="" style="endArrow=none;html=1;rounded=0;endFill=0;startArrow=none;startFill=0;strokeWidth=1;strokeColor=#0d0d0d;jumpStyle=arc;entryX=0.592;entryY=-0.033;entryDx=0;entryDy=0;entryPerimeter=0;" edge="1" parent="1" source="njmSZVeZpDOZNiLY1oN7-6" target="njmSZVeZpDOZNiLY1oN7-43">
          <mxGeometry relative="1" as="geometry">
            <mxPoint x="447" y="260" as="sourcePoint" />
            <mxPoint x="510" y="440" as="targetPoint" />
          </mxGeometry>
        </mxCell>
        <mxCell id="njmSZVeZpDOZNiLY1oN7-45" value="1000base-TX" style="edgeLabel;resizable=0;html=1;align=center;verticalAlign=middle;" connectable="0" vertex="1" parent="njmSZVeZpDOZNiLY1oN7-44">
          <mxGeometry relative="1" as="geometry">
            <mxPoint x="-1" y="5" as="offset" />
          </mxGeometry>
        </mxCell>
        <mxCell id="njmSZVeZpDOZNiLY1oN7-46" value="Gi1/01" style="edgeLabel;resizable=0;html=1;align=left;verticalAlign=bottom;labelBorderColor=none;spacing=2;" connectable="0" vertex="1" parent="njmSZVeZpDOZNiLY1oN7-44">
          <mxGeometry x="-1" relative="1" as="geometry">
            <mxPoint x="-18" y="27" as="offset" />
          </mxGeometry>
        </mxCell>
        <mxCell id="njmSZVeZpDOZNiLY1oN7-47" value="Gi1/02" style="edgeLabel;resizable=0;html=1;align=right;verticalAlign=bottom;" connectable="0" vertex="1" parent="njmSZVeZpDOZNiLY1oN7-44">
          <mxGeometry x="1" relative="1" as="geometry">
            <mxPoint x="10" y="-4" as="offset" />
          </mxGeometry>
        </mxCell>
        <mxCell id="njmSZVeZpDOZNiLY1oN7-48" value="hostname-A22" style="rounded=0;whiteSpace=wrap;html=1;strokeWidth=2;" vertex="1" parent="1">
          <mxGeometry x="250" y="657" width="120" height="60" as="geometry" />
        </mxCell>
        <mxCell id="njmSZVeZpDOZNiLY1oN7-49" value="" style="endArrow=none;html=1;rounded=0;endFill=0;startArrow=none;startFill=0;strokeWidth=1;strokeColor=#0d0d0d;jumpStyle=arc;entryX=0.5;entryY=0;entryDx=0;entryDy=0;exitX=0.5;exitY=1;exitDx=0;exitDy=0;edgeStyle=orthogonalEdgeStyle;" edge="1" parent="1" source="njmSZVeZpDOZNiLY1oN7-10" target="njmSZVeZpDOZNiLY1oN7-48">
          <mxGeometry relative="1" as="geometry">
            <mxPoint x="510" y="501" as="sourcePoint" />
            <mxPoint x="512" y="665" as="targetPoint" />
            <Array as="points">
              <mxPoint x="1236" y="610" />
              <mxPoint x="310" y="610" />
            </Array>
          </mxGeometry>
        </mxCell>
        <mxCell id="njmSZVeZpDOZNiLY1oN7-50" value="1000base-TX" style="edgeLabel;resizable=0;html=1;align=center;verticalAlign=middle;" connectable="0" vertex="1" parent="njmSZVeZpDOZNiLY1oN7-49">
          <mxGeometry relative="1" as="geometry">
            <mxPoint x="-1" y="-10" as="offset" />
          </mxGeometry>
        </mxCell>
        <mxCell id="njmSZVeZpDOZNiLY1oN7-51" value="Gi1/01" style="edgeLabel;resizable=0;html=1;align=left;verticalAlign=bottom;labelBorderColor=none;spacing=2;" connectable="0" vertex="1" parent="njmSZVeZpDOZNiLY1oN7-49">
          <mxGeometry x="-1" relative="1" as="geometry">
            <mxPoint x="-18" y="27" as="offset" />
          </mxGeometry>
        </mxCell>
        <mxCell id="njmSZVeZpDOZNiLY1oN7-52" value="Gi1/02" style="edgeLabel;resizable=0;html=1;align=right;verticalAlign=bottom;" connectable="0" vertex="1" parent="njmSZVeZpDOZNiLY1oN7-49">
          <mxGeometry x="1" relative="1" as="geometry">
            <mxPoint x="10" y="-6" as="offset" />
          </mxGeometry>
        </mxCell>
        <mxCell id="njmSZVeZpDOZNiLY1oN7-53" value="hostname-B31" style="rounded=0;whiteSpace=wrap;html=1;strokeWidth=2;" vertex="1" parent="1">
          <mxGeometry x="1000" y="657" width="120" height="60" as="geometry" />
        </mxCell>
        <mxCell id="njmSZVeZpDOZNiLY1oN7-54" value="" style="endArrow=none;html=1;rounded=0;endFill=0;startArrow=none;startFill=0;strokeWidth=1;strokeColor=#0d0d0d;jumpStyle=arc;entryX=0.592;entryY=-0.033;entryDx=0;entryDy=0;entryPerimeter=0;" edge="1" parent="1" target="njmSZVeZpDOZNiLY1oN7-53">
          <mxGeometry relative="1" as="geometry">
            <mxPoint x="1069" y="491" as="sourcePoint" />
            <mxPoint x="1079" y="440" as="targetPoint" />
          </mxGeometry>
        </mxCell>
        <mxCell id="njmSZVeZpDOZNiLY1oN7-55" value="1000base-TX" style="edgeLabel;resizable=0;html=1;align=center;verticalAlign=middle;" connectable="0" vertex="1" parent="njmSZVeZpDOZNiLY1oN7-54">
          <mxGeometry relative="1" as="geometry">
            <mxPoint x="-1" y="5" as="offset" />
          </mxGeometry>
        </mxCell>
        <mxCell id="njmSZVeZpDOZNiLY1oN7-56" value="Gi1/01" style="edgeLabel;resizable=0;html=1;align=left;verticalAlign=bottom;labelBorderColor=none;spacing=2;" connectable="0" vertex="1" parent="njmSZVeZpDOZNiLY1oN7-54">
          <mxGeometry x="-1" relative="1" as="geometry">
            <mxPoint x="-18" y="27" as="offset" />
          </mxGeometry>
        </mxCell>
        <mxCell id="njmSZVeZpDOZNiLY1oN7-57" value="Gi1/02" style="edgeLabel;resizable=0;html=1;align=right;verticalAlign=bottom;" connectable="0" vertex="1" parent="njmSZVeZpDOZNiLY1oN7-54">
          <mxGeometry x="1" relative="1" as="geometry">
            <mxPoint x="10" y="-4" as="offset" />
          </mxGeometry>
        </mxCell>
      </root>
    </mxGraphModel>
  </diagram>
</mxfile>
